<svg xmlns="http://www.w3.org/2000/svg" xmlns:xlink="http://www.w3.org/1999/xlink" width="300" zoomAndPan="magnify" viewBox="0 0 375 374.999991" height="300" preserveAspectRatio="xMidYMid meet" version="1.0"><defs><g/></defs><rect x="-37.5" width="450" fill="#ffffff" y="-37.499999" height="449.999989" fill-opacity="1"/><rect x="-37.5" width="450" fill="#ffffff" y="-37.499999" height="449.999989" fill-opacity="1"/><g fill="#ff5757" fill-opacity="1"><g transform="translate(57.4155, 195.224298)"><g><path d="M 15.339844 5.042969 C 22.695312 2.3125 29.527344 -3.46875 31.941406 -11.136719 C 33.097656 -14.710938 33.097656 -18.597656 31.101562 -21.960938 C 29.210938 -25.113281 23.640625 -27.320312 23.957031 -31.628906 C 24.585938 -40.035156 44.761719 -39.296875 40.769531 -49.804688 C 38.457031 -56.109375 29.527344 -54.429688 24.691406 -52.957031 C 17.96875 -50.855469 11.453125 -47.074219 9.773438 -39.71875 C 8.617188 -35.09375 10.085938 -30.785156 13.238281 -27.425781 C 15.972656 -24.585938 19.542969 -22.695312 17.757812 -18.074219 C 15.234375 -11.453125 6.09375 -10.824219 1.890625 -5.570312 C -0.734375 -2.207031 -0.628906 1.261719 2.730469 4.308594 C 6.09375 7.460938 11.347656 6.515625 15.339844 5.042969 Z M 15.339844 5.042969 "/></g></g></g><g fill="#ff5757" fill-opacity="1"><g transform="translate(94.29489, 195.224298)"><g><path d="M 37.300781 12.609375 C 40.035156 10.296875 38.667969 3.46875 38.667969 0.523438 C 38.457031 -5.777344 38.878906 -15.867188 35.304688 -21.433594 C 30.261719 -29 22.382812 -22.277344 17.96875 -17.863281 C 19.019531 -25.007812 19.230469 -32.363281 19.648438 -39.613281 C 20.070312 -46.863281 23.117188 -55.269531 21.75 -62.414062 C 20.488281 -68.296875 13.238281 -69.980469 9.773438 -64.621094 C 6.621094 -59.789062 5.777344 -52.433594 4.832031 -46.863281 C 2.625 -34.78125 0 -19.648438 2.730469 -7.566406 C 5.988281 7.355469 18.808594 -4.308594 25.007812 -9.773438 C 29.945312 -4.832031 27.425781 3.574219 30.367188 9.351562 C 31.734375 11.980469 34.359375 15.027344 37.300781 12.609375 Z M 37.300781 12.609375 "/></g></g></g><g fill="#ff5757" fill-opacity="1"><g transform="translate(128.862722, 195.224298)"><g><path d="M 14.078125 -4.726562 C 20.070312 -3.675781 27.003906 -5.464844 31.417969 -9.878906 C 35.09375 -13.554688 36.882812 -26.480469 28.054688 -22.695312 C 25.847656 -21.75 14.5 -10.191406 15.027344 -19.648438 C 15.339844 -25.113281 20.175781 -23.957031 23.957031 -24.691406 C 27.738281 -25.429688 32.046875 -26.582031 34.675781 -29.527344 C 40.347656 -35.9375 34.675781 -44.867188 27.632812 -46.96875 C 20.910156 -48.964844 13.132812 -46.128906 8.511719 -41.1875 C -0.734375 -31.417969 -2.523438 -7.671875 14.078125 -4.726562 Z M 21.015625 -31.3125 C 22.171875 -33.835938 24.585938 -34.988281 27.214844 -34.570312 C 28.160156 -32.363281 23.117188 -30.578125 21.015625 -31.3125 Z M 21.015625 -31.3125 "/></g></g></g><g fill="#ff5757" fill-opacity="1"><g transform="translate(161.43423, 195.224298)"><g><path d="M 16.8125 -0.421875 C 22.800781 1.574219 26.058594 -4.414062 27.738281 -9.035156 C 30.261719 -15.761719 32.257812 -22.800781 33.835938 -29.734375 C 34.675781 -33.835938 38.140625 -44.445312 34.464844 -47.914062 C 25.429688 -56.425781 22.695312 -27.109375 22.382812 -24.691406 C 20.804688 -30.261719 17.023438 -57.476562 6.726562 -53.691406 C -4.203125 -49.59375 5.359375 -22.484375 7.566406 -15.234375 C 9.140625 -10.085938 11.03125 -2.3125 16.8125 -0.421875 Z M 16.8125 -0.421875 "/></g></g></g><g fill="#ff5757" fill-opacity="1"><g transform="translate(193.165169, 195.224298)"><g><path d="M 33.519531 -0.105469 C 39.191406 1.050781 38.039062 -7.878906 37.933594 -11.03125 L 37.300781 -30.785156 C 37.089844 -36.882812 35.410156 -38.984375 32.152344 -43.710938 C 24.691406 -54.429688 12.292969 -48.125 6.515625 -39.089844 C 1.785156 -31.628906 -0.316406 -20.28125 3.78125 -11.980469 C 9.246094 -1.050781 22.90625 -5.253906 28.894531 -13.449219 C 29 -10.085938 28.789062 -1.15625 33.519531 -0.105469 Z M 20.175781 -23.851562 C 17.023438 -23.957031 17.441406 -26.792969 18.179688 -29 C 19.019531 -31.207031 21.433594 -35.09375 23.640625 -35.9375 C 27.003906 -37.300781 28.054688 -34.148438 26.6875 -31.101562 C 25.953125 -29.210938 22.695312 -23.746094 20.175781 -23.851562 Z M 20.175781 -23.851562 "/></g></g></g><g fill="#ff5757" fill-opacity="1"><g transform="translate(226.892439, 195.224298)"><g><path d="M 2.101562 -3.046875 C 5.464844 5.042969 18.074219 -5.042969 12.609375 -10.191406 C 8.40625 -16.496094 -0.523438 -9.246094 2.101562 -3.046875 Z M 2.101562 -3.046875 "/></g></g></g><g fill="#ff914d" fill-opacity="1"><g transform="translate(236.454555, 195.224298)"><g><path d="M 39.929688 10.613281 C 42.765625 6.09375 42.449219 0.210938 42.554688 -5.042969 C 42.765625 -11.558594 43.5 -18.074219 43.082031 -24.691406 C 42.554688 -30.261719 38.351562 -40.242188 31.207031 -35.621094 C 25.847656 -32.152344 25.535156 -24.585938 21.332031 -20.28125 C 15.027344 -13.765625 15.339844 -25.953125 15.65625 -29.839844 C 16.078125 -34.675781 20.804688 -45.390625 16.179688 -49.070312 C 9.667969 -54.21875 4.097656 -43.605469 2.730469 -38.667969 C 1.15625 -32.257812 1.367188 -25.21875 1.996094 -18.703125 C 3.363281 -5.777344 14.394531 6.933594 26.582031 -4.9375 C 26.898438 0.628906 31.628906 23.746094 39.929688 10.613281 Z M 39.929688 10.613281 "/></g></g></g><g fill="#ff914d" fill-opacity="1"><g transform="translate(275.225207, 195.224298)"><g><path d="M 30.050781 -1.050781 C 33.730469 -1.679688 38.878906 -2.730469 40.347656 -6.726562 C 41.820312 -10.402344 39.191406 -13.660156 35.726562 -14.605469 C 32.679688 -15.445312 23.117188 -13.132812 21.015625 -15.65625 C 19.859375 -17.230469 24.273438 -21.433594 25.21875 -22.800781 C 29.527344 -28.476562 38.5625 -36.566406 36.355469 -44.550781 C 34.042969 -52.957031 22.695312 -53.0625 15.867188 -51.90625 C 11.136719 -51.066406 -3.574219 -45.078125 6.199219 -38.878906 C 8.722656 -37.195312 14.605469 -39.613281 16.179688 -36.777344 C 17.96875 -33.625 12.609375 -28.894531 10.824219 -26.792969 C 6.304688 -21.433594 -2.730469 -11.453125 3.992188 -4.414062 C 9.773438 1.574219 22.800781 0.105469 30.050781 -1.050781 Z M 30.050781 -1.050781 "/></g></g></g><g fill="#2b2b2b" fill-opacity="1"><g transform="translate(140.658104, 237.670555)"><g><path d="M 1.9375 -5.203125 L 1.9375 -3.828125 L 4.390625 -3.828125 L 4.390625 -2.71875 L 1.9375 -2.71875 L 1.9375 -1.25 L 4.84375 -1.25 L 4.84375 0 L 0.484375 0 L 0.484375 -6.46875 L 4.84375 -6.46875 L 4.84375 -5.203125 Z M 1.9375 -5.203125 "/></g></g></g><g fill="#2b2b2b" fill-opacity="1"><g transform="translate(146.689594, 237.670555)"><g><path d="M 2.875 0.078125 C 2.351562 0.078125 1.898438 -0.0195312 1.515625 -0.21875 C 1.140625 -0.425781 0.851562 -0.691406 0.65625 -1.015625 C 0.46875 -1.347656 0.375 -1.691406 0.375 -2.046875 L 0.375 -2.125 L 1.953125 -2.125 L 1.953125 -2.0625 C 1.953125 -1.84375 2.03125 -1.640625 2.1875 -1.453125 C 2.351562 -1.265625 2.59375 -1.171875 2.90625 -1.171875 C 3.164062 -1.171875 3.375 -1.238281 3.53125 -1.375 C 3.695312 -1.507812 3.78125 -1.6875 3.78125 -1.90625 C 3.78125 -2.101562 3.707031 -2.257812 3.5625 -2.375 C 3.425781 -2.5 3.253906 -2.582031 3.046875 -2.625 L 2.3125 -2.78125 C 1.875 -2.875 1.46875 -3.054688 1.09375 -3.328125 C 0.71875 -3.597656 0.53125 -4.039062 0.53125 -4.65625 C 0.53125 -5.0625 0.628906 -5.40625 0.828125 -5.6875 C 1.023438 -5.976562 1.296875 -6.203125 1.640625 -6.359375 C 1.984375 -6.515625 2.375 -6.59375 2.8125 -6.59375 C 3.3125 -6.59375 3.738281 -6.492188 4.09375 -6.296875 C 4.457031 -6.109375 4.734375 -5.863281 4.921875 -5.5625 C 5.109375 -5.257812 5.203125 -4.941406 5.203125 -4.609375 L 5.203125 -4.5625 L 3.625 -4.5625 L 3.625 -4.59375 C 3.625 -4.789062 3.550781 -4.972656 3.40625 -5.140625 C 3.269531 -5.304688 3.050781 -5.390625 2.75 -5.390625 C 2.519531 -5.390625 2.332031 -5.320312 2.1875 -5.1875 C 2.050781 -5.0625 1.984375 -4.894531 1.984375 -4.6875 C 1.984375 -4.488281 2.0625 -4.328125 2.21875 -4.203125 C 2.375 -4.085938 2.554688 -4.007812 2.765625 -3.96875 L 3.515625 -3.796875 C 4.003906 -3.691406 4.421875 -3.492188 4.765625 -3.203125 C 5.109375 -2.921875 5.28125 -2.503906 5.28125 -1.953125 C 5.28125 -1.546875 5.175781 -1.1875 4.96875 -0.875 C 4.757812 -0.570312 4.472656 -0.335938 4.109375 -0.171875 C 3.742188 -0.00390625 3.332031 0.078125 2.875 0.078125 Z M 2.875 0.078125 "/></g></g></g><g fill="#2b2b2b" fill-opacity="1"><g transform="translate(153.08131, 237.670555)"><g><path d="M 5.15625 -5.203125 L 3.453125 -5.203125 L 3.453125 0 L 2.015625 0 L 2.015625 -5.203125 L 0.328125 -5.203125 L 0.328125 -6.46875 L 5.15625 -6.46875 Z M 5.15625 -5.203125 "/></g></g></g><g fill="#2b2b2b" fill-opacity="1"><g transform="translate(159.371422, 237.670555)"><g/></g></g><g fill="#2b2b2b" fill-opacity="1"><g transform="translate(162.299419, 237.670555)"><g><path d="M 0.515625 -1.21875 L 1.359375 -1.953125 C 1.460938 -2.023438 1.554688 -2.097656 1.640625 -2.171875 C 1.734375 -2.253906 1.820312 -2.328125 1.90625 -2.390625 C 2.320312 -2.722656 2.640625 -2.988281 2.859375 -3.1875 C 3.078125 -3.382812 3.257812 -3.597656 3.40625 -3.828125 C 3.550781 -4.054688 3.625 -4.289062 3.625 -4.53125 C 3.625 -4.757812 3.550781 -4.957031 3.40625 -5.125 C 3.257812 -5.289062 3.046875 -5.375 2.765625 -5.375 C 2.390625 -5.375 2.144531 -5.265625 2.03125 -5.046875 C 1.914062 -4.835938 1.859375 -4.617188 1.859375 -4.390625 L 1.859375 -4.265625 L 0.453125 -4.265625 C 0.453125 -4.753906 0.546875 -5.175781 0.734375 -5.53125 C 0.929688 -5.882812 1.203125 -6.148438 1.546875 -6.328125 C 1.890625 -6.515625 2.285156 -6.609375 2.734375 -6.609375 C 3.191406 -6.609375 3.585938 -6.519531 3.921875 -6.34375 C 4.265625 -6.164062 4.523438 -5.925781 4.703125 -5.625 C 4.890625 -5.320312 4.984375 -4.984375 4.984375 -4.609375 C 4.984375 -4.253906 4.90625 -3.929688 4.75 -3.640625 C 4.601562 -3.347656 4.425781 -3.097656 4.21875 -2.890625 C 4.019531 -2.679688 3.757812 -2.441406 3.4375 -2.171875 L 3.234375 -2.015625 L 2.375 -1.296875 L 2.375 -1.25 L 5.03125 -1.25 L 5.03125 0 L 0.515625 0 Z M 0.515625 -1.21875 "/></g></g></g><g fill="#2b2b2b" fill-opacity="1"><g transform="translate(168.626481, 237.670555)"><g><path d="M 2.875 0.140625 C 2.019531 0.140625 1.378906 -0.132812 0.953125 -0.6875 C 0.535156 -1.25 0.328125 -1.988281 0.328125 -2.90625 L 0.328125 -3.578125 C 0.328125 -4.492188 0.535156 -5.222656 0.953125 -5.765625 C 1.378906 -6.304688 2.019531 -6.578125 2.875 -6.578125 C 3.738281 -6.578125 4.378906 -6.304688 4.796875 -5.765625 C 5.210938 -5.222656 5.421875 -4.492188 5.421875 -3.578125 L 5.421875 -2.90625 C 5.421875 -1.988281 5.210938 -1.25 4.796875 -0.6875 C 4.378906 -0.132812 3.738281 0.140625 2.875 0.140625 Z M 2.875 -1.09375 C 3.207031 -1.09375 3.441406 -1.238281 3.578125 -1.53125 C 3.722656 -1.820312 3.796875 -2.25 3.796875 -2.8125 L 3.796875 -3.671875 C 3.796875 -4.222656 3.722656 -4.640625 3.578125 -4.921875 C 3.441406 -5.203125 3.207031 -5.34375 2.875 -5.34375 C 2.539062 -5.34375 2.300781 -5.203125 2.15625 -4.921875 C 2.019531 -4.640625 1.953125 -4.222656 1.953125 -3.671875 L 1.953125 -2.8125 C 1.953125 -2.25 2.019531 -1.820312 2.15625 -1.53125 C 2.300781 -1.238281 2.539062 -1.09375 2.875 -1.09375 Z M 2.875 -1.09375 "/></g></g></g><g fill="#2b2b2b" fill-opacity="1"><g transform="translate(175.221394, 237.670555)"><g><path d="M 0.515625 -1.21875 L 1.359375 -1.953125 C 1.460938 -2.023438 1.554688 -2.097656 1.640625 -2.171875 C 1.734375 -2.253906 1.820312 -2.328125 1.90625 -2.390625 C 2.320312 -2.722656 2.640625 -2.988281 2.859375 -3.1875 C 3.078125 -3.382812 3.257812 -3.597656 3.40625 -3.828125 C 3.550781 -4.054688 3.625 -4.289062 3.625 -4.53125 C 3.625 -4.757812 3.550781 -4.957031 3.40625 -5.125 C 3.257812 -5.289062 3.046875 -5.375 2.765625 -5.375 C 2.390625 -5.375 2.144531 -5.265625 2.03125 -5.046875 C 1.914062 -4.835938 1.859375 -4.617188 1.859375 -4.390625 L 1.859375 -4.265625 L 0.453125 -4.265625 C 0.453125 -4.753906 0.546875 -5.175781 0.734375 -5.53125 C 0.929688 -5.882812 1.203125 -6.148438 1.546875 -6.328125 C 1.890625 -6.515625 2.285156 -6.609375 2.734375 -6.609375 C 3.191406 -6.609375 3.585938 -6.519531 3.921875 -6.34375 C 4.265625 -6.164062 4.523438 -5.925781 4.703125 -5.625 C 4.890625 -5.320312 4.984375 -4.984375 4.984375 -4.609375 C 4.984375 -4.253906 4.90625 -3.929688 4.75 -3.640625 C 4.601562 -3.347656 4.425781 -3.097656 4.21875 -2.890625 C 4.019531 -2.679688 3.757812 -2.441406 3.4375 -2.171875 L 3.234375 -2.015625 L 2.375 -1.296875 L 2.375 -1.25 L 5.03125 -1.25 L 5.03125 0 L 0.515625 0 Z M 0.515625 -1.21875 "/></g></g></g><g fill="#2b2b2b" fill-opacity="1"><g transform="translate(181.548454, 237.670555)"><g><path d="M 3.125 -1.515625 L 0.3125 -1.53125 L 0.3125 -2.5625 L 2.71875 -6.46875 L 4.53125 -6.46875 L 4.53125 -2.609375 L 5.296875 -2.609375 L 5.296875 -1.515625 L 4.53125 -1.515625 L 4.53125 0 L 3.125 0 Z M 3.125 -2.625 L 3.125 -4.765625 L 1.765625 -2.625 Z M 3.125 -2.625 "/></g></g></g><g fill="#2b2b2b" fill-opacity="1"><g transform="translate(188.06948, 237.670555)"><g/></g></g><g fill="#2b2b2b" fill-opacity="1"><g transform="translate(190.997476, 237.670555)"><g><path d="M 0.84375 -8.765625 L 2.015625 -8.765625 L 2.015625 2.390625 L 0.84375 2.390625 Z M 0.84375 -8.765625 "/></g></g></g><g fill="#2b2b2b" fill-opacity="1"><g transform="translate(194.664399, 237.670555)"><g/></g></g><g fill="#2b2b2b" fill-opacity="1"><g transform="translate(197.592394, 237.670555)"><g><path d="M 0.484375 -6.46875 L 2.625 -6.46875 L 3.890625 -2.796875 L 3.921875 -2.796875 L 5.1875 -6.46875 L 7.328125 -6.46875 L 7.328125 0 L 5.90625 0 L 5.90625 -4.4375 L 5.875 -4.4375 L 4.359375 0 L 3.4375 0 L 1.9375 -4.4375 L 1.890625 -4.4375 L 1.890625 0 L 0.484375 0 Z M 0.484375 -6.46875 "/></g></g></g><g fill="#2b2b2b" fill-opacity="1"><g transform="translate(206.200891, 237.670555)"><g><path d="M 1.546875 0.078125 C 1.316406 0.078125 1.128906 0.00390625 0.984375 -0.140625 C 0.835938 -0.296875 0.765625 -0.488281 0.765625 -0.71875 C 0.765625 -0.9375 0.835938 -1.117188 0.984375 -1.265625 C 1.128906 -1.421875 1.316406 -1.5 1.546875 -1.5 C 1.773438 -1.5 1.960938 -1.421875 2.109375 -1.265625 C 2.265625 -1.117188 2.34375 -0.9375 2.34375 -0.71875 C 2.34375 -0.488281 2.265625 -0.296875 2.109375 -0.140625 C 1.960938 0.00390625 1.773438 0.078125 1.546875 0.078125 Z M 1.546875 0.078125 "/></g></g></g><g fill="#2b2b2b" fill-opacity="1"><g transform="translate(210.10796, 237.670555)"><g><path d="M 0.484375 -6.46875 L 2.625 -6.46875 L 3.890625 -2.796875 L 3.921875 -2.796875 L 5.1875 -6.46875 L 7.328125 -6.46875 L 7.328125 0 L 5.90625 0 L 5.90625 -4.4375 L 5.875 -4.4375 L 4.359375 0 L 3.4375 0 L 1.9375 -4.4375 L 1.890625 -4.4375 L 1.890625 0 L 0.484375 0 Z M 0.484375 -6.46875 "/></g></g></g><g fill="#2b2b2b" fill-opacity="1"><g transform="translate(218.716457, 237.670555)"><g><path d="M 1.546875 0.078125 C 1.316406 0.078125 1.128906 0.00390625 0.984375 -0.140625 C 0.835938 -0.296875 0.765625 -0.488281 0.765625 -0.71875 C 0.765625 -0.9375 0.835938 -1.117188 0.984375 -1.265625 C 1.128906 -1.421875 1.316406 -1.5 1.546875 -1.5 C 1.773438 -1.5 1.960938 -1.421875 2.109375 -1.265625 C 2.265625 -1.117188 2.34375 -0.9375 2.34375 -0.71875 C 2.34375 -0.488281 2.265625 -0.296875 2.109375 -0.140625 C 1.960938 0.00390625 1.773438 0.078125 1.546875 0.078125 Z M 1.546875 0.078125 "/></g></g></g><g fill="#2b2b2b" fill-opacity="1"><g transform="translate(222.623527, 237.670555)"><g><path d="M 0.484375 -6.46875 L 2.625 -6.46875 L 3.890625 -2.796875 L 3.921875 -2.796875 L 5.1875 -6.46875 L 7.328125 -6.46875 L 7.328125 0 L 5.90625 0 L 5.90625 -4.4375 L 5.875 -4.4375 L 4.359375 0 L 3.4375 0 L 1.9375 -4.4375 L 1.890625 -4.4375 L 1.890625 0 L 0.484375 0 Z M 0.484375 -6.46875 "/></g></g></g><g fill="#2b2b2b" fill-opacity="1"><g transform="translate(231.232023, 237.670555)"><g><path d="M 1.546875 0.078125 C 1.316406 0.078125 1.128906 0.00390625 0.984375 -0.140625 C 0.835938 -0.296875 0.765625 -0.488281 0.765625 -0.71875 C 0.765625 -0.9375 0.835938 -1.117188 0.984375 -1.265625 C 1.128906 -1.421875 1.316406 -1.5 1.546875 -1.5 C 1.773438 -1.5 1.960938 -1.421875 2.109375 -1.265625 C 2.265625 -1.117188 2.34375 -0.9375 2.34375 -0.71875 C 2.34375 -0.488281 2.265625 -0.296875 2.109375 -0.140625 C 1.960938 0.00390625 1.773438 0.078125 1.546875 0.078125 Z M 1.546875 0.078125 "/></g></g></g><g fill="#2b2b2b" fill-opacity="1"><g transform="translate(235.140033, 237.670555)"><g/></g></g></svg>